<?xml version="1.0" encoding="UTF-8" standalone="no"?>
<!-- Created with Inkscape (http://www.inkscape.org/) -->

<svg
   width="210mm"
   height="297mm"
   viewBox="0 0 210 297"
   version="1.1"
   id="svg1"
   xml:space="preserve"
   inkscape:version="1.4 (e7c3feb1, 2024-10-09)"
   sodipodi:docname="trigger_architecture.svg"
   xmlns:inkscape="http://www.inkscape.org/namespaces/inkscape"
   xmlns:sodipodi="http://sodipodi.sourceforge.net/DTD/sodipodi-0.dtd"
   xmlns="http://www.w3.org/2000/svg"
   xmlns:svg="http://www.w3.org/2000/svg"><sodipodi:namedview
     id="namedview1"
     pagecolor="#ffffff"
     bordercolor="#000000"
     borderopacity="0.25"
     inkscape:showpageshadow="2"
     inkscape:pageopacity="0.0"
     inkscape:pagecheckerboard="0"
     inkscape:deskcolor="#d1d1d1"
     inkscape:document-units="mm"
     inkscape:zoom="1.4784608"
     inkscape:cx="73.387133"
     inkscape:cy="782.57063"
     inkscape:window-width="3440"
     inkscape:window-height="1387"
     inkscape:window-x="0"
     inkscape:window-y="25"
     inkscape:window-maximized="0"
     inkscape:current-layer="g52" /><defs
     id="defs1"><marker
       style="overflow:visible"
       id="marker23"
       refX="0"
       refY="0"
       orient="auto-start-reverse"
       inkscape:stockid="Triangle arrow"
       markerWidth="1"
       markerHeight="1"
       viewBox="0 0 1 1"
       inkscape:isstock="true"
       inkscape:collect="always"
       preserveAspectRatio="xMidYMid"><path
         transform="scale(0.5)"
         style="fill:context-stroke;fill-rule:evenodd;stroke:context-stroke;stroke-width:1pt"
         d="M 5.77,0 -2.88,5 V -5 Z"
         id="path23" /></marker><marker
       style="overflow:visible"
       id="marker14"
       refX="0"
       refY="0"
       orient="auto-start-reverse"
       inkscape:stockid="Triangle arrow"
       markerWidth="1"
       markerHeight="1"
       viewBox="0 0 1 1"
       inkscape:isstock="true"
       inkscape:collect="always"
       preserveAspectRatio="xMidYMid"><path
         transform="scale(0.5)"
         style="fill:context-stroke;fill-rule:evenodd;stroke:context-stroke;stroke-width:1pt"
         d="M 5.77,0 -2.88,5 V -5 Z"
         id="path14" /></marker><marker
       style="overflow:visible"
       id="Triangle"
       refX="0"
       refY="0"
       orient="auto-start-reverse"
       inkscape:stockid="Triangle arrow"
       markerWidth="1"
       markerHeight="1"
       viewBox="0 0 1 1"
       inkscape:isstock="true"
       inkscape:collect="always"
       preserveAspectRatio="xMidYMid"><path
         transform="scale(0.5)"
         style="fill:context-stroke;fill-rule:evenodd;stroke:context-stroke;stroke-width:1pt"
         d="M 5.77,0 -2.88,5 V -5 Z"
         id="path135" /></marker><marker
       style="overflow:visible"
       id="Triangle-5"
       refX="0"
       refY="0"
       orient="auto-start-reverse"
       inkscape:stockid="Triangle arrow"
       markerWidth="1"
       markerHeight="1"
       viewBox="0 0 1 1"
       inkscape:isstock="true"
       inkscape:collect="always"
       preserveAspectRatio="xMidYMid"><path
         transform="scale(0.5)"
         style="fill:context-stroke;fill-rule:evenodd;stroke:context-stroke;stroke-width:1pt"
         d="M 5.77,0 -2.88,5 V -5 Z"
         id="path135-2" /></marker><marker
       style="overflow:visible"
       id="Triangle-5-9"
       refX="0"
       refY="0"
       orient="auto-start-reverse"
       inkscape:stockid="Triangle arrow"
       markerWidth="1"
       markerHeight="1"
       viewBox="0 0 1 1"
       inkscape:isstock="true"
       inkscape:collect="always"
       preserveAspectRatio="xMidYMid"><path
         transform="scale(0.5)"
         style="fill:context-stroke;fill-rule:evenodd;stroke:context-stroke;stroke-width:1pt"
         d="M 5.77,0 -2.88,5 V -5 Z"
         id="path135-2-0" /></marker><marker
       style="overflow:visible"
       id="Triangle-5-9-8"
       refX="0"
       refY="0"
       orient="auto-start-reverse"
       inkscape:stockid="Triangle arrow"
       markerWidth="1"
       markerHeight="1"
       viewBox="0 0 1 1"
       inkscape:isstock="true"
       inkscape:collect="always"
       preserveAspectRatio="xMidYMid"><path
         transform="scale(0.5)"
         style="fill:context-stroke;fill-rule:evenodd;stroke:context-stroke;stroke-width:1pt"
         d="M 5.77,0 -2.88,5 V -5 Z"
         id="path135-2-0-9" /></marker><marker
       style="overflow:visible"
       id="Triangle-5-9-8-1"
       refX="0"
       refY="0"
       orient="auto-start-reverse"
       inkscape:stockid="Triangle arrow"
       markerWidth="1"
       markerHeight="1"
       viewBox="0 0 1 1"
       inkscape:isstock="true"
       inkscape:collect="always"
       preserveAspectRatio="xMidYMid"><path
         transform="scale(0.5)"
         style="fill:context-stroke;fill-rule:evenodd;stroke:context-stroke;stroke-width:1pt"
         d="M 5.77,0 -2.88,5 V -5 Z"
         id="path135-2-0-9-4" /></marker><marker
       style="overflow:visible"
       id="Triangle-5-9-8-1-6"
       refX="0"
       refY="0"
       orient="auto-start-reverse"
       inkscape:stockid="Triangle arrow"
       markerWidth="1"
       markerHeight="1"
       viewBox="0 0 1 1"
       inkscape:isstock="true"
       inkscape:collect="always"
       preserveAspectRatio="xMidYMid"><path
         transform="scale(0.5)"
         style="fill:context-stroke;fill-rule:evenodd;stroke:context-stroke;stroke-width:1pt"
         d="M 5.77,0 -2.88,5 V -5 Z"
         id="path135-2-0-9-4-1" /></marker><marker
       style="overflow:visible"
       id="Triangle-5-90"
       refX="0"
       refY="0"
       orient="auto-start-reverse"
       inkscape:stockid="Triangle arrow"
       markerWidth="1"
       markerHeight="1"
       viewBox="0 0 1 1"
       inkscape:isstock="true"
       inkscape:collect="always"
       preserveAspectRatio="xMidYMid"><path
         transform="scale(0.5)"
         style="fill:context-stroke;fill-rule:evenodd;stroke:context-stroke;stroke-width:1pt"
         d="M 5.77,0 -2.88,5 V -5 Z"
         id="path135-2-03" /></marker><marker
       style="overflow:visible"
       id="Triangle-5-8"
       refX="0"
       refY="0"
       orient="auto-start-reverse"
       inkscape:stockid="Triangle arrow"
       markerWidth="1"
       markerHeight="1"
       viewBox="0 0 1 1"
       inkscape:isstock="true"
       inkscape:collect="always"
       preserveAspectRatio="xMidYMid"><path
         transform="scale(0.5)"
         style="fill:context-stroke;fill-rule:evenodd;stroke:context-stroke;stroke-width:1pt"
         d="M 5.77,0 -2.88,5 V -5 Z"
         id="path135-2-7" /></marker><marker
       style="overflow:visible"
       id="Triangle-5-9-7"
       refX="0"
       refY="0"
       orient="auto-start-reverse"
       inkscape:stockid="Triangle arrow"
       markerWidth="1"
       markerHeight="1"
       viewBox="0 0 1 1"
       inkscape:isstock="true"
       inkscape:collect="always"
       preserveAspectRatio="xMidYMid"><path
         transform="scale(0.5)"
         style="fill:context-stroke;fill-rule:evenodd;stroke:context-stroke;stroke-width:1pt"
         d="M 5.77,0 -2.88,5 V -5 Z"
         id="path135-2-0-94" /></marker><marker
       style="overflow:visible"
       id="Triangle-5-9-9"
       refX="0"
       refY="0"
       orient="auto-start-reverse"
       inkscape:stockid="Triangle arrow"
       markerWidth="1"
       markerHeight="1"
       viewBox="0 0 1 1"
       inkscape:isstock="true"
       inkscape:collect="always"
       preserveAspectRatio="xMidYMid"><path
         transform="scale(0.5)"
         style="fill:context-stroke;fill-rule:evenodd;stroke:context-stroke;stroke-width:1pt"
         d="M 5.77,0 -2.88,5 V -5 Z"
         id="path135-2-0-1" /></marker></defs><g
     inkscape:label="Layer 1"
     inkscape:groupmode="layer"
     id="layer1"><g
       id="node11-9"
       class="node"
       transform="matrix(0.35262363,0,0,0.35262363,-35.011187,259.69772)"><title
         id="title5-6">End</title></g><g
       id="g52"
       transform="translate(15.786406,-38.899091)"><g
         id="g57"
         inkscape:export-filename="/Users/m.poinsinetdesivry-houle/Desktop/trigger_architecture.png"
         inkscape:export-xdpi="300"
         inkscape:export-ydpi="300"><rect
           style="fill:#ffffff;fill-opacity:1;stroke:#000000;stroke-width:0.253;stroke-linecap:round;stroke-linejoin:round;stroke-dasharray:none;stroke-opacity:1"
           id="rect56"
           width="237.84438"
           height="92.948418"
           x="-23.751989"
           y="184.52777"
           ry="3.3177264"
           rx="3.3177261" /><g
           id="g56"
           transform="translate(-6.634926,-48.151665)"
           inkscape:export-filename="trigger_architecture.png"
           inkscape:export-xdpi="96"
           inkscape:export-ydpi="96"><g
             id="node1-2"
             class="node"
             transform="matrix(0.35262363,0,0,0.35262363,13.042598,280.8644)"><title
               id="title2-7">A</title><path
               fill="#d3d3d3"
               stroke="#000000"
               d="m 105.15,-74.08 c 0,0 -93.15,0 -93.15,0 -6,0 -12,6 -12,12 0,0 0,12 0,12 0,6 6,12 12,12 0,0 93.15,0 93.15,0 6,0 12,-6 12,-12 0,0 0,-12 0,-12 0,-6 -6,-12 -12,-12"
               id="path2-3" /><text
               text-anchor="middle"
               x="58.358204"
               y="-60.459503"
               font-family="Times, serif"
               font-weight="bold"
               font-size="8px"
               id="text2-9"
               style="font-size:9.00393px"><tspan
                 sodipodi:role="line"
                 id="tspan31"
                 x="58.358204"
                 y="-60.459503"
                 style="font-weight:normal;font-size:9.00393px">Check Rising Edge:</tspan><tspan
                 sodipodi:role="line"
                 id="tspan32"
                 x="58.3582"
                 y="-49.20459"
                 style="font-weight:normal;font-size:9.00393px">s[i-1] &lt; lower &amp; s[i] &gt; upper</tspan></text></g><path
             fill="#d3d3d3"
             stroke="#000000"
             d="m 215.55,-74.08 c 0,0 -41.4,0 -41.4,0 -6,0 -12,6 -12,12 0,0 0,12 0,12 0,6 6,12 12,12 0,0 41.4,0 41.4,0 6,0 12,-6 12,-12 0,0 0,-12 0,-12 0,-6 -6,-12 -12,-12"
             id="path5-0"
             style="fill:#a3aae8;fill-opacity:1"
             transform="matrix(0.35262362,0,0,0.35262362,-35.011188,259.69772)" /><text
             text-anchor="middle"
             x="194.85001"
             y="-53.360001"
             font-family="Times, serif"
             font-weight="bold"
             font-size="8px"
             id="text6-4"
             style="font-size:9.00393px"
             transform="matrix(0.35262362,0,0,0.35262362,-35.011188,259.69772)"><tspan
               style="font-weight:normal;font-size:9.00393px"
               id="tspan52">End Algorithm</tspan></text><g
             id="g2"
             transform="translate(-46.102145,-27.276872)"><g
               id="g1"><g
                 id="clust1-5"
                 class="cluster"
                 transform="matrix(0.35262363,0,0,0.35262363,-44.372106,385.37974)"><title
                   id="title1-9">cluster</title><path
                   fill="none"
                   stroke="#000000"
                   stroke-dasharray="5, 2"
                   d="m 276.55,-96.08 c 0,0 160.3,0 160.3,0 6,0 12,-6 12,-12 0,0 0,-47 0,-47 0,-6 -6,-12 -12,-12 0,0 -160.3,0 -160.3,0 -6,0 -12,6 -12,12 0,0 0,47 0,47 0,6 6,12 12,12"
                   id="path1-5" /><text
                   text-anchor="middle"
                   x="295.04999"
                   y="-153.58"
                   font-family="Times, serif"
                   font-size="10px"
                   id="text1-3">Debouncer</text></g><g
                 id="node3-0"
                 class="node"
                 transform="matrix(0.35262363,0,0,0.35262363,-44.372106,385.37974)"><title
                   id="title7-1">D</title><path
                   fill="#d3d3d3"
                   stroke="#000000"
                   d="m 327.45,-140.08 c 0,0 -42.9,0 -42.9,0 -6,0 -12,6 -12,12 0,0 0,12 0,12 0,6 6,12 12,12 0,0 42.9,0 42.9,0 6,0 12,-6 12,-12 0,0 0,-12 0,-12 0,-6 -6,-12 -12,-12"
                   id="path7-0" /><text
                   text-anchor="middle"
                   x="306"
                   y="-124.23"
                   font-family="Times, serif"
                   font-weight="bold"
                   font-size="8px"
                   id="text8-3"
                   style="font-size:9.00393px"><tspan
                     sodipodi:role="line"
                     id="tspan55"
                     x="306"
                     y="-124.23"
                     style="font-weight:normal;font-size:9.00393px">Count Samples</tspan><tspan
                     sodipodi:role="line"
                     id="tspan56"
                     x="306"
                     y="-112.97509"
                     style="font-weight:normal;font-size:9.00393px">&gt; upper</tspan></text><text
                   text-anchor="middle"
                   x="306"
                   y="-114.48"
                   font-family="Times, serif"
                   font-weight="bold"
                   font-size="8px"
                   id="text9-0"><tspan
                     style="font-weight:normal"
                     id="tspan51" /></text></g><g
                 id="node4-9"
                 class="node"
                 transform="matrix(0.35262363,0,0,0.35262363,-44.372106,385.37974)"><title
                   id="title13-1">E</title><path
                   fill="#d3d3d3"
                   stroke="#000000"
                   d="m 428.85,-140.08 c 0,0 -41.4,0 -41.4,0 -6,0 -12,6 -12,12 0,0 0,12 0,12 0,6 6,12 12,12 0,0 41.4,0 41.4,0 6,0 12,-6 12,-12 0,0 0,-12 0,-12 0,-6 -6,-12 -12,-12"
                   id="path13-0" /><text
                   text-anchor="middle"
                   x="408.14999"
                   y="-124.23"
                   font-family="Times, serif"
                   font-weight="bold"
                   font-size="8px"
                   id="text14-9"
                   style="font-size:9.00393px"><tspan
                     sodipodi:role="line"
                     id="tspan53"
                     x="408.14999"
                     y="-124.23"
                     style="font-weight:normal;font-size:9.00393px">Is Count ≥</tspan><tspan
                     sodipodi:role="line"
                     id="tspan54"
                     x="408.14999"
                     y="-112.97509"
                     style="font-weight:normal;font-size:9.00393px">min_duration?</tspan></text><text
                   text-anchor="middle"
                   x="408.14999"
                   y="-114.48"
                   font-family="Times, serif"
                   font-weight="bold"
                   font-size="8px"
                   id="text15-3"><tspan
                     style="font-weight:normal"
                     id="tspan49" /></text></g><g
                 id="edge4-0"
                 class="edge"
                 transform="matrix(0.35262363,0,0,0.35262363,-44.372106,385.37974)"><title
                   id="title15-0">D-&gt;E</title><path
                   fill="none"
                   stroke="#000000"
                   d="m 339.73,-122.08 c 0,0 23.91,0 23.91,0"
                   id="path15-3" /><polygon
                   fill="#000000"
                   stroke="#000000"
                   points="363.64,-118.58 363.64,-125.58 373.64,-122.08 "
                   id="polygon15-0" /></g></g></g><g
             id="node5-1"
             class="node"
             transform="matrix(0.35262363,0,0,0.35262363,-90.469626,355.81081)"><title
               id="title16-9">F</title><path
               fill="#d3d3d3"
               stroke="#000000"
               d="m 553.5,-143.08 c 0,0 -61.65,0 -61.65,0 -6,0 -12,6 -12,12 0,0 0,12 0,12 0,6 6,12 12,12 0,0 61.65,0 61.65,0 6,0 12,-6 12,-12 0,0 0,-12 0,-12 0,-6 -6,-12 -12,-12"
               id="path16-8" /><text
               text-anchor="middle"
               x="522.66998"
               y="-122.36"
               font-family="Times, serif"
               font-weight="bold"
               font-size="8px"
               id="text16-6"
               style="font-size:9.00393px"><tspan
                 style="font-weight:normal;font-size:9.00393px"
                 id="tspan47">Not enough samples.</tspan></text></g><g
             id="node10-7"
             class="node"
             transform="matrix(0.35262363,0,0,0.35262363,-157.24033,270.46146)"><title
               id="title29-1">M</title><path
               fill="#d3d3d3"
               stroke="#000000"
               d="m 1052.85,-45.08 c 0,0 -66.9,0 -66.9,0 -6,0 -12,6 -12,12 0,0 0,12 0,12 0,6 6,12 12,12 0,0 66.9,0 66.9,0 6,0 12,-6 12,-12 0,0 0,-12 0,-12 0,-6 -6,-12 -12,-12"
               id="path29-0" /><text
               text-anchor="middle"
               x="1019.4"
               y="-24.360001"
               font-family="Times, serif"
               font-weight="bold"
               font-size="8px"
               id="text29-0"
               style="font-size:9.00393px"><tspan
                 style="font-weight:normal;font-size:9.00393px"
                 id="tspan46">Loop for Next Trigger</tspan></text></g><path
             style="fill:#000000;stroke:#000000;stroke-width:0.553;stroke-linecap:round;stroke-linejoin:round;stroke-dasharray:none;stroke-opacity:1;marker-end:url(#Triangle)"
             d="m 33.631796,254.56573 0.06091,-6.17799"
             id="path8"
             sodipodi:nodetypes="cc" /><path
             style="fill:#000000;stroke:#000000;stroke-width:0.553;stroke-linecap:round;stroke-linejoin:round;stroke-dasharray:none;stroke-opacity:1;marker-end:url(#Triangle-5)"
             d="m 33.631796,267.52078 0.06091,6.33725"
             id="path8-7"
             sodipodi:nodetypes="cc" /><path
             style="fill:#000000;stroke:#000000;stroke-width:0.553;stroke-linecap:round;stroke-linejoin:round;stroke-dasharray:none;stroke-opacity:1;marker-end:url(#Triangle-5-8)"
             d="M 33.631796,288.68746 33.692706,297"
             id="path8-7-6"
             sodipodi:nodetypes="cc" /><path
             style="fill:#000000;stroke:#000000;stroke-width:0.553;stroke-linecap:round;stroke-linejoin:round;stroke-dasharray:none;stroke-opacity:1;marker-end:url(#Triangle-5-90)"
             d="m 200.84852,275.73241 0.0609,-6.52447"
             id="path8-7-3"
             sodipodi:nodetypes="cc" /><path
             style="fill:#000000;stroke:#000000;stroke-width:0.553;stroke-linecap:round;stroke-linejoin:round;stroke-dasharray:none;stroke-opacity:1;marker-end:url(#Triangle-5-9)"
             d="m 48.627737,282.26169 8.585235,-0.0609"
             id="path8-7-8"
             sodipodi:nodetypes="cc" /><path
             style="fill:#000000;stroke:#000000;stroke-width:0.553;stroke-linecap:round;stroke-linejoin:round;stroke-dasharray:none;stroke-opacity:1;marker-end:url(#Triangle-5-9-9)"
             d="m 2.3931674,261.31211 8.5852356,-0.0609"
             id="path8-7-8-0"
             sodipodi:nodetypes="cc" /><path
             style="fill:#000000;stroke:#000000;stroke-width:0.553;stroke-linecap:round;stroke-linejoin:round;stroke-dasharray:none;stroke-opacity:1;marker-end:url(#Triangle-5-9-7)"
             d="m 68.206904,311.89503 8.726938,-0.0609"
             id="path8-7-8-1"
             sodipodi:nodetypes="cc" /><path
             style="fill:#000000;stroke:#000000;stroke-width:0.553;stroke-linecap:round;stroke-linejoin:round;stroke-dasharray:none;stroke-opacity:1;marker-end:url(#Triangle-5-9-8)"
             d="m 91.643659,282.13315 8.726941,-0.0609"
             id="path8-7-8-9"
             sodipodi:nodetypes="cc" /><path
             style="fill:#000000;stroke:#000000;stroke-width:0.553;stroke-linecap:round;stroke-linejoin:round;stroke-dasharray:none;stroke-opacity:1;marker-end:url(#Triangle-5-9-8-1)"
             d="m 131.6358,282.13315 8.72695,-0.0609"
             id="path8-7-8-9-0"
             sodipodi:nodetypes="cc" /><path
             style="fill:#000000;stroke:#000000;stroke-width:0.553;stroke-linecap:round;stroke-linejoin:round;stroke-dasharray:none;stroke-opacity:1;marker-end:url(#Triangle-5-9-8-1-6)"
             d="m 175.36118,282.13315 8.72695,-0.0609"
             id="path8-7-8-9-0-5"
             sodipodi:nodetypes="cc" /><g
             id="node9-1"
             class="node"
             transform="matrix(0.35262363,0,0,0.35262363,-114.84192,303.26472)"><title
               id="title19-4">L</title><path
               fill="#d3d3d3"
               stroke="#000000"
               d="m 925.95,-78.08 c 0,0 -60.15,0 -60.15,0 -6,0 -12,6 -12,12 0,0 0,12 0,12 0,6 6,12 12,12 0,0 60.15,0 60.15,0 6,0 12,-6 12,-12 0,0 0,-12 0,-12 0,-6 -6,-12 -12,-12"
               id="path19-0" /><text
               text-anchor="middle"
               x="895.87"
               y="-62.23"
               font-family="Times, serif"
               font-weight="bold"
               font-size="8px"
               id="text19-8"
               style="font-size:9.00393px"><tspan
                 sodipodi:role="line"
                 id="tspan44"
                 x="895.87"
                 y="-62.23"
                 style="font-weight:normal;font-size:9.00393px">Update Loop Index:</tspan><tspan
                 sodipodi:role="line"
                 id="tspan45"
                 x="895.87"
                 y="-50.975086"
                 style="font-weight:normal;font-size:9.00393px">i = k</tspan></text><text
               text-anchor="middle"
               x="895.87"
               y="-52.48"
               font-family="Times, serif"
               font-weight="bold"
               font-size="8px"
               id="text20-1" /></g><g
             id="node7-1"
             class="node"
             transform="matrix(0.35262363,0,0,0.35262363,-110.65038,303.26648)"><title
               id="title21-5">I</title><path
               fill="#d3d3d3"
               stroke="#000000"
               d="m 675.9,-81.91 c 0,0 -59.4,0 -59.4,0 -6,0 -12,6 -12,12 0,0 0,19.65 0,19.65 0,6 6,12 12,12 0,0 59.4,0 59.4,0 6,0 12,-6 12,-12 0,0 0,-19.65 0,-19.65 0,-6 -6,-12 -12,-12"
               id="path21-0" /><text
               text-anchor="middle"
               x="646.20001"
               y="-68.610657"
               font-family="Times, serif"
               font-weight="bold"
               font-size="8px"
               id="text22-8"
               style="font-size:9.00393px"><tspan
                 sodipodi:role="line"
                 id="tspan37"
                 x="646.20001"
                 y="-68.610657"
                 style="font-weight:normal;font-size:9.00393px">Extend Trigger:</tspan><tspan
                 sodipodi:role="line"
                 id="tspan38"
                 x="646.20001"
                 y="-57.355743"
                 style="font-weight:normal;font-size:9.00393px">while signal &gt; lower</tspan><tspan
                 sodipodi:role="line"
                 x="646.20001"
                 y="-46.10083"
                 style="font-weight:normal;font-size:9.00393px"
                 id="tspan39">(set k)</tspan></text><text
               text-anchor="middle"
               x="646.20001"
               y="-47.610001"
               font-family="Times, serif"
               font-weight="bold"
               font-size="8px"
               id="text24-9" /></g><g
             id="node8-3"
             class="node"
             transform="matrix(0.35262363,0,0,0.35262363,-112.76149,303.26648)"><title
               id="title25-8">J</title><path
               fill="#d3d3d3"
               stroke="#000000"
               d="m 805.8,-81.91 c 0,0 -69.9,0 -69.9,0 -6,0 -12,6 -12,12 0,0 0,19.65 0,19.65 0,6 6,12 12,12 0,0 69.9,0 69.9,0 6,0 12,-6 12,-12 0,0 0,-19.65 0,-19.65 0,-6 -6,-12 -12,-12"
               id="path25-7" /><text
               text-anchor="middle"
               x="770.84998"
               y="-63.225613"
               font-family="Times, serif"
               font-weight="bold"
               font-size="8px"
               id="text25-8"
               style="font-size:9.00393px"><tspan
                 sodipodi:role="line"
                 id="tspan41"
                 x="770.84998"
                 y="-63.225613"
                 style="font-weight:normal;font-size:9.00393px">Compute End Index:</tspan><tspan
                 sodipodi:role="line"
                 id="tspan42"
                 x="770.84998"
                 y="-51.970699"
                 style="font-weight:normal;font-size:9.00393px">min(k-1+post, length-1)</tspan></text><text
               text-anchor="middle"
               x="770.84998"
               y="-57.360001"
               font-family="Times, serif"
               font-weight="bold"
               font-size="8px"
               id="text26-0" /><text
               text-anchor="middle"
               x="770.84998"
               y="-47.610001"
               font-family="Times, serif"
               font-weight="bold"
               font-size="8px"
               id="text27-4" /></g><g
             id="node2-7"
             class="node"
             transform="matrix(0.35262363,0,0,0.35262363,-35.011187,324.95162)"><title
               id="title3-9">C</title><path
               fill="#d3d3d3"
               stroke="#000000"
               d="m 224.55,-139.08 c 0,0 -59.4,0 -59.4,0 -6,0 -12,6 -12,12 0,0 0,12 0,12 0,6 6,12 12,12 0,0 59.4,0 59.4,0 6,0 12,-6 12,-12 0,0 0,-12 0,-12 0,-6 -6,-12 -12,-12"
               id="path3-5" /><text
               text-anchor="middle"
               x="194.85001"
               y="-118.36"
               font-family="Times, serif"
               font-weight="bold"
               font-size="8px"
               id="text4-3"
               style="font-size:9.00393px"><tspan
                 style="font-weight:normal;font-size:9.00393px"
                 id="tspan29">Debounce Enabled?</tspan></text></g><g
             id="node6-0"
             class="node"
             transform="matrix(0.35262363,0,0,0.35262363,-108.81068,303.44158)"><title
               id="title10-4">H</title><path
               fill="#d3d3d3"
               stroke="#000000"
               d="m 556.5,-78.08 c 0,0 -67.65,0 -67.65,0 -6,0 -12,6 -12,12 0,0 0,12 0,12 0,6 6,12 12,12 0,0 67.65,0 67.65,0 6,0 12,-6 12,-12 0,0 0,-12 0,-12 0,-6 -6,-12 -12,-12"
               id="path10-0" /><text
               text-anchor="middle"
               x="522.89044"
               y="-64.473839"
               font-family="Times, serif"
               font-weight="bold"
               font-size="8px"
               id="text11-9"
               style="font-size:9.00393px"><tspan
                 sodipodi:role="line"
                 id="tspan34"
                 x="522.89044"
                 y="-64.473839"
                 style="font-weight:normal;font-size:9.00393px">Compute Start Index:</tspan><tspan
                 sodipodi:role="line"
                 id="tspan35"
                 x="522.89044"
                 y="-53.218925"
                 style="font-weight:normal;font-size:9.00393px">start = max(i - pre, 0)</tspan></text></g><path
             style="fill:none;stroke:#000000;stroke-width:0.553;stroke-linecap:round;stroke-linejoin:round;stroke-dasharray:none;stroke-opacity:1;marker-end:url(#marker14)"
             d="m 109.11535,311.70464 91.94284,1e-5 v -21.27733"
             id="path11"
             sodipodi:nodetypes="ccc" /><path
             style="fill:none;stroke:#000000;stroke-width:0.553;stroke-linecap:round;stroke-linejoin:round;stroke-dasharray:none;stroke-opacity:1;marker-end:url(#marker23)"
             d="M 186.02114,260.91241 H 56.531357"
             id="path22"
             sodipodi:nodetypes="cc" /><text
             xml:space="preserve"
             style="font-style:normal;font-variant:normal;font-weight:normal;font-stretch:normal;font-size:4.23333px;font-family:Times, serif;-inkscape-font-specification:'Times, serif';text-align:start;writing-mode:lr-tb;direction:ltr;text-anchor:start;fill:#000000;fill-opacity:1;stroke:none;stroke-width:0.553;stroke-linecap:round;stroke-linejoin:round;stroke-dasharray:none;stroke-opacity:1"
             x="36.66222"
             y="294.49753"
             id="text28"><tspan
               sodipodi:role="line"
               id="tspan23"
               style="font-weight:normal;fill:#000000;fill-opacity:1;stroke:none;stroke-width:0.553"
               x="36.66222"
               y="294.49753">Yes</tspan></text><text
             xml:space="preserve"
             style="font-style:normal;font-variant:normal;font-weight:normal;font-stretch:normal;font-size:4.23333px;font-family:Times, serif;-inkscape-font-specification:'Times, serif';text-align:start;writing-mode:lr-tb;direction:ltr;text-anchor:start;fill:#000000;fill-opacity:1;stroke:none;stroke-width:0.553;stroke-linecap:round;stroke-linejoin:round;stroke-dasharray:none;stroke-opacity:1"
             x="36.66222"
             y="272.81525"
             id="text28-4"><tspan
               sodipodi:role="line"
               id="tspan23-3"
               style="font-weight:normal;fill:#000000;fill-opacity:1;stroke:none;stroke-width:0.553"
               x="36.66222"
               y="272.81525">Yes</tspan></text><text
             xml:space="preserve"
             style="font-style:normal;font-variant:normal;font-weight:normal;font-stretch:normal;font-size:4.23333px;font-family:Times, serif;-inkscape-font-specification:'Times, serif';text-align:start;writing-mode:lr-tb;direction:ltr;text-anchor:start;fill:#000000;fill-opacity:1;stroke:none;stroke-width:0.553;stroke-linecap:round;stroke-linejoin:round;stroke-dasharray:none;stroke-opacity:1"
             x="36.66222"
             y="251.64861"
             id="text28-4-4"><tspan
               sodipodi:role="line"
               id="tspan23-3-0"
               style="font-weight:normal;fill:#000000;fill-opacity:1;stroke:none;stroke-width:0.553"
               x="36.66222"
               y="251.64861">No</tspan></text><text
             xml:space="preserve"
             style="font-style:normal;font-variant:normal;font-weight:normal;font-stretch:normal;font-size:4.23333px;font-family:Times, serif;-inkscape-font-specification:'Times, serif';text-align:start;writing-mode:lr-tb;direction:ltr;text-anchor:start;fill:#000000;fill-opacity:1;stroke:none;stroke-width:0.553;stroke-linecap:round;stroke-linejoin:round;stroke-dasharray:none;stroke-opacity:1"
             x="50.373989"
             y="287.26608"
             id="text28-4-4-5"><tspan
               sodipodi:role="line"
               id="tspan23-3-0-4"
               style="font-weight:normal;fill:#000000;fill-opacity:1;stroke:none;stroke-width:0.553"
               x="50.373989"
               y="287.26608">No</tspan></text><text
             xml:space="preserve"
             style="font-style:normal;font-variant:normal;font-weight:normal;font-stretch:normal;font-size:4.23333px;font-family:Times, serif;-inkscape-font-specification:'Times, serif';text-align:start;writing-mode:lr-tb;direction:ltr;text-anchor:start;fill:#000000;fill-opacity:1;stroke:none;stroke-width:0.553;stroke-linecap:round;stroke-linejoin:round;stroke-dasharray:none;stroke-opacity:1"
             x="145.6864"
             y="316.271"
             id="text28-4-4-1"><tspan
               sodipodi:role="line"
               id="tspan23-3-0-9"
               style="font-weight:normal;fill:#000000;fill-opacity:1;stroke:none;stroke-width:0.553"
               x="145.6864"
               y="316.271">Skip Candidate</tspan></text><text
             xml:space="preserve"
             style="font-style:normal;font-variant:normal;font-weight:normal;font-stretch:normal;font-size:4.23333px;font-family:Times, serif;-inkscape-font-specification:'Times, serif';text-align:start;writing-mode:lr-tb;direction:ltr;text-anchor:start;fill:#000000;fill-opacity:1;stroke:none;stroke-width:0.553;stroke-linecap:round;stroke-linejoin:round;stroke-dasharray:none;stroke-opacity:1"
             x="112.23676"
             y="258.28854"
             id="text28-4-4-1-2"><tspan
               sodipodi:role="line"
               id="tspan23-3-0-9-1"
               style="font-weight:normal;fill:#000000;fill-opacity:1;stroke:none;stroke-width:0.553"
               x="112.23676"
               y="258.28854">Next iteration</tspan></text><g
             id="node1-2-7"
             class="node"
             transform="matrix(0.35262363,0,0,0.35262363,-36.699068,280.8644)"><title
               id="title2-7-6">A</title><path
               fill="#d3d3d3"
               stroke="#000000"
               d="M 105.15,-74.08 H 72.495227 c -6,0 -12,6 -12,12 v 12 c 0,6 6,12 12,12 H 105.15 c 6,0 12,-6 12,-12 v -12 c 0,-6 -6,-12 -12,-12"
               id="path2-3-8"
               sodipodi:nodetypes="csssssssc"
               style="fill:#ff7d7d;fill-opacity:1;stroke:#000000;stroke-opacity:1" /><text
               text-anchor="middle"
               x="88.730286"
               y="-54.566891"
               font-family="Times, serif"
               font-weight="bold"
               font-size="8px"
               id="text2-9-2"
               style="font-size:9.00393px"><tspan
                 style="font-weight:normal;font-size:9.00393px"
                 id="tspan28"
                 dx="0 0 0 0 0 0 0 0.3715834">Start: index i</tspan></text><text
               text-anchor="middle"
               x="58.580002"
               y="-48.48"
               font-family="Times, serif"
               font-weight="bold"
               font-size="8px"
               id="text3-7-3" /></g></g></g></g></g></svg>
